<mxfile host="app.diagrams.net" modified="2024-03-18T05:39:26.040Z" agent="Mozilla/5.0 (Macintosh; Intel Mac OS X 10_15_7) AppleWebKit/537.36 (KHTML, like Gecko) Chrome/122.0.0.0 Safari/537.36" etag="0a7qr2vtfFSlu8FLWWTS" version="24.0.6" type="github">
  <diagram name="第 1 页" id="RmDm3fmFeUkyor1gOjHk">
    <mxGraphModel dx="500" dy="318" grid="0" gridSize="10" guides="1" tooltips="1" connect="1" arrows="1" fold="1" page="0" pageScale="1" pageWidth="1200" pageHeight="1920" math="0" shadow="0">
      <root>
        <mxCell id="0" />
        <mxCell id="1" parent="0" />
        <mxCell id="SMzR3NN7AUrO5DCWCIX2-3" value="" style="edgeStyle=orthogonalEdgeStyle;rounded=0;orthogonalLoop=1;jettySize=auto;html=1;exitX=0.5;exitY=1;exitDx=0;exitDy=0;" edge="1" parent="1" source="SMzR3NN7AUrO5DCWCIX2-1" target="SMzR3NN7AUrO5DCWCIX2-2">
          <mxGeometry relative="1" as="geometry" />
        </mxCell>
        <mxCell id="SMzR3NN7AUrO5DCWCIX2-8" style="edgeStyle=orthogonalEdgeStyle;rounded=0;orthogonalLoop=1;jettySize=auto;html=1;" edge="1" parent="1" source="SMzR3NN7AUrO5DCWCIX2-1" target="SMzR3NN7AUrO5DCWCIX2-5">
          <mxGeometry relative="1" as="geometry" />
        </mxCell>
        <mxCell id="SMzR3NN7AUrO5DCWCIX2-9" style="edgeStyle=orthogonalEdgeStyle;rounded=0;orthogonalLoop=1;jettySize=auto;html=1;" edge="1" parent="1" source="SMzR3NN7AUrO5DCWCIX2-1" target="SMzR3NN7AUrO5DCWCIX2-4">
          <mxGeometry relative="1" as="geometry" />
        </mxCell>
        <mxCell id="SMzR3NN7AUrO5DCWCIX2-10" style="edgeStyle=orthogonalEdgeStyle;rounded=0;orthogonalLoop=1;jettySize=auto;html=1;" edge="1" parent="1" source="SMzR3NN7AUrO5DCWCIX2-1" target="SMzR3NN7AUrO5DCWCIX2-6">
          <mxGeometry relative="1" as="geometry">
            <Array as="points">
              <mxPoint x="441" y="216" />
              <mxPoint x="656" y="216" />
            </Array>
          </mxGeometry>
        </mxCell>
        <mxCell id="SMzR3NN7AUrO5DCWCIX2-11" style="edgeStyle=orthogonalEdgeStyle;rounded=0;orthogonalLoop=1;jettySize=auto;html=1;exitX=0.5;exitY=1;exitDx=0;exitDy=0;" edge="1" parent="1" source="SMzR3NN7AUrO5DCWCIX2-1" target="SMzR3NN7AUrO5DCWCIX2-7">
          <mxGeometry relative="1" as="geometry">
            <Array as="points">
              <mxPoint x="441" y="216" />
              <mxPoint x="799" y="216" />
            </Array>
          </mxGeometry>
        </mxCell>
        <mxCell id="SMzR3NN7AUrO5DCWCIX2-14" style="edgeStyle=orthogonalEdgeStyle;rounded=0;orthogonalLoop=1;jettySize=auto;html=1;" edge="1" parent="1" source="SMzR3NN7AUrO5DCWCIX2-1" target="SMzR3NN7AUrO5DCWCIX2-13">
          <mxGeometry relative="1" as="geometry">
            <Array as="points">
              <mxPoint x="441" y="216" />
              <mxPoint x="84" y="216" />
            </Array>
          </mxGeometry>
        </mxCell>
        <mxCell id="SMzR3NN7AUrO5DCWCIX2-1" value="MCD&#39; shop : 5948" style="rounded=0;whiteSpace=wrap;html=1;" vertex="1" parent="1">
          <mxGeometry x="381" y="110" width="120" height="60" as="geometry" />
        </mxCell>
        <mxCell id="SMzR3NN7AUrO5DCWCIX2-2" value="&lt;div&gt;东部&lt;/div&gt;&lt;div&gt;上海&lt;/div&gt;" style="rounded=0;whiteSpace=wrap;html=1;" vertex="1" parent="1">
          <mxGeometry x="167" y="262" width="120" height="60" as="geometry" />
        </mxCell>
        <mxCell id="SMzR3NN7AUrO5DCWCIX2-4" value="西北部&lt;div&gt;新疆、西藏&lt;/div&gt;" style="rounded=0;whiteSpace=wrap;html=1;" vertex="1" parent="1">
          <mxGeometry x="453" y="262" width="120" height="60" as="geometry" />
        </mxCell>
        <mxCell id="SMzR3NN7AUrO5DCWCIX2-21" style="edgeStyle=orthogonalEdgeStyle;rounded=0;orthogonalLoop=1;jettySize=auto;html=1;" edge="1" parent="1" source="SMzR3NN7AUrO5DCWCIX2-5" target="SMzR3NN7AUrO5DCWCIX2-19">
          <mxGeometry relative="1" as="geometry" />
        </mxCell>
        <mxCell id="SMzR3NN7AUrO5DCWCIX2-22" style="edgeStyle=orthogonalEdgeStyle;rounded=0;orthogonalLoop=1;jettySize=auto;html=1;" edge="1" parent="1" source="SMzR3NN7AUrO5DCWCIX2-5" target="SMzR3NN7AUrO5DCWCIX2-20">
          <mxGeometry relative="1" as="geometry">
            <Array as="points">
              <mxPoint x="370" y="371" />
              <mxPoint x="506" y="371" />
            </Array>
          </mxGeometry>
        </mxCell>
        <mxCell id="SMzR3NN7AUrO5DCWCIX2-5" value="中部&lt;div&gt;江苏、江西。。。&lt;/div&gt;" style="rounded=0;whiteSpace=wrap;html=1;" vertex="1" parent="1">
          <mxGeometry x="310" y="262" width="120" height="60" as="geometry" />
        </mxCell>
        <mxCell id="SMzR3NN7AUrO5DCWCIX2-6" value="西南部&lt;div&gt;云南、四川。。。&lt;/div&gt;" style="rounded=0;whiteSpace=wrap;html=1;" vertex="1" parent="1">
          <mxGeometry x="596" y="262" width="120" height="60" as="geometry" />
        </mxCell>
        <mxCell id="SMzR3NN7AUrO5DCWCIX2-7" value="南部&lt;div&gt;海南、广西、广州&lt;/div&gt;" style="rounded=0;whiteSpace=wrap;html=1;" vertex="1" parent="1">
          <mxGeometry x="739" y="262" width="120" height="60" as="geometry" />
        </mxCell>
        <mxCell id="SMzR3NN7AUrO5DCWCIX2-12" value="门店总数/地理面积 + county_tier" style="text;html=1;align=center;verticalAlign=middle;whiteSpace=wrap;rounded=0;" vertex="1" parent="1">
          <mxGeometry x="517" y="188" width="187" height="30" as="geometry" />
        </mxCell>
        <mxCell id="SMzR3NN7AUrO5DCWCIX2-16" value="" style="edgeStyle=orthogonalEdgeStyle;rounded=0;orthogonalLoop=1;jettySize=auto;html=1;" edge="1" parent="1" source="SMzR3NN7AUrO5DCWCIX2-5" target="SMzR3NN7AUrO5DCWCIX2-15">
          <mxGeometry relative="1" as="geometry">
            <mxPoint x="367" y="322" as="sourcePoint" />
            <Array as="points">
              <mxPoint x="370" y="371" />
              <mxPoint x="227" y="371" />
            </Array>
          </mxGeometry>
        </mxCell>
        <mxCell id="SMzR3NN7AUrO5DCWCIX2-13" value="北部&lt;div&gt;北京、天津。。。&lt;/div&gt;" style="rounded=0;whiteSpace=wrap;html=1;" vertex="1" parent="1">
          <mxGeometry x="24" y="262" width="120" height="60" as="geometry" />
        </mxCell>
        <mxCell id="SMzR3NN7AUrO5DCWCIX2-24" value="" style="edgeStyle=orthogonalEdgeStyle;rounded=0;orthogonalLoop=1;jettySize=auto;html=1;exitX=0.5;exitY=1;exitDx=0;exitDy=0;" edge="1" parent="1" source="SMzR3NN7AUrO5DCWCIX2-15" target="SMzR3NN7AUrO5DCWCIX2-23">
          <mxGeometry relative="1" as="geometry" />
        </mxCell>
        <mxCell id="SMzR3NN7AUrO5DCWCIX2-27" style="edgeStyle=orthogonalEdgeStyle;rounded=0;orthogonalLoop=1;jettySize=auto;html=1;" edge="1" parent="1" source="SMzR3NN7AUrO5DCWCIX2-15" target="SMzR3NN7AUrO5DCWCIX2-25">
          <mxGeometry relative="1" as="geometry" />
        </mxCell>
        <mxCell id="SMzR3NN7AUrO5DCWCIX2-28" style="edgeStyle=orthogonalEdgeStyle;rounded=0;orthogonalLoop=1;jettySize=auto;html=1;exitX=0.5;exitY=1;exitDx=0;exitDy=0;" edge="1" parent="1" source="SMzR3NN7AUrO5DCWCIX2-15" target="SMzR3NN7AUrO5DCWCIX2-26">
          <mxGeometry relative="1" as="geometry">
            <mxPoint x="242.03703703703695" y="457.9999999999999" as="sourcePoint" />
            <mxPoint x="360.03703703703695" y="502" as="targetPoint" />
            <Array as="points">
              <mxPoint x="227" y="481" />
              <mxPoint x="360" y="481" />
            </Array>
          </mxGeometry>
        </mxCell>
        <mxCell id="SMzR3NN7AUrO5DCWCIX2-15" value="A1" style="rounded=0;whiteSpace=wrap;html=1;" vertex="1" parent="1">
          <mxGeometry x="167" y="398" width="120" height="60" as="geometry" />
        </mxCell>
        <mxCell id="SMzR3NN7AUrO5DCWCIX2-17" value="Group by lbs_segment" style="text;html=1;align=center;verticalAlign=middle;whiteSpace=wrap;rounded=0;" vertex="1" parent="1">
          <mxGeometry x="385" y="337" width="139" height="30" as="geometry" />
        </mxCell>
        <mxCell id="SMzR3NN7AUrO5DCWCIX2-19" value="B1" style="rounded=0;whiteSpace=wrap;html=1;" vertex="1" parent="1">
          <mxGeometry x="310" y="398" width="120" height="60" as="geometry" />
        </mxCell>
        <mxCell id="SMzR3NN7AUrO5DCWCIX2-20" value="T(count&amp;lt;20)" style="rounded=0;whiteSpace=wrap;html=1;" vertex="1" parent="1">
          <mxGeometry x="446" y="398" width="120" height="60" as="geometry" />
        </mxCell>
        <mxCell id="SMzR3NN7AUrO5DCWCIX2-23" value="A1" style="rounded=0;whiteSpace=wrap;html=1;" vertex="1" parent="1">
          <mxGeometry x="34" y="504" width="120" height="60" as="geometry" />
        </mxCell>
        <mxCell id="SMzR3NN7AUrO5DCWCIX2-25" value="A1" style="rounded=0;whiteSpace=wrap;html=1;" vertex="1" parent="1">
          <mxGeometry x="167" y="504" width="120" height="60" as="geometry" />
        </mxCell>
        <mxCell id="SMzR3NN7AUrO5DCWCIX2-26" value="A1" style="rounded=0;whiteSpace=wrap;html=1;" vertex="1" parent="1">
          <mxGeometry x="300" y="504" width="120" height="60" as="geometry" />
        </mxCell>
      </root>
    </mxGraphModel>
  </diagram>
</mxfile>
